<?xml version="1.0" encoding="utf-8"?>
<!-- Generator: Adobe Illustrator 21.1.0, SVG Export Plug-In . SVG Version: 6.00 Build 0)  -->
<svg version="1.1" id="Layer_1" xmlns="http://www.w3.org/2000/svg" xmlns:xlink="http://www.w3.org/1999/xlink" x="0px" y="0px"
	 viewBox="0 0 477.9 477.9" style="enable-background:new 0 0 477.9 477.9;" xml:space="preserve">
<style type="text/css">
	.st0{fill:#FFFFFF;}
	.st1{display:none;}
	.st2{display:inline;}
</style>
<g id="Capa_1">
	<path class="st0" d="M238.9,0C107,0,0,107,0,238.9s107,238.9,238.9,238.9s238.9-107,238.9-238.9C477.7,107,370.8,0.1,238.9,0z
		 M393.7,180.9L212.9,361.8c-3.5,3.5-8.1,5.3-12.7,5.3c-4.6,0-9.2-1.8-12.7-5.3L77.3,251.7c-7-7-7-18.4,0-25.5c7-7,18.4-7,25.5,0
		l97.4,97.4l168.1-168.1c7-7,18.4-7,25.5,0C400.8,162.5,400.8,173.9,393.7,180.9z"/>
</g>
<g id="Capa_1_copy" class="st1">
	<g class="st2">
		<g>
			<path d="M238.9,0C107,0,0,107,0,238.9s107,238.9,238.9,238.9s238.9-107,238.9-238.9C477.7,107,370.8,0.1,238.9,0z M238.9,443.7
				c-113.1,0-204.8-91.7-204.8-204.8S125.8,34.1,238.9,34.1s204.8,91.7,204.8,204.8C443.6,352,352,443.6,238.9,443.7z"/>
		</g>
	</g>
	<path class="st2" d="M200.1,367.1c-4.6,0-9.2-1.8-12.7-5.3L77.3,251.7c-7-7-7-18.4,0-25.5c7-7,18.4-7,25.5,0l97.4,97.4l168.1-168.1
		c7-7,18.4-7,25.5,0c7,7,7,18.4,0,25.5L212.9,361.8C209.3,365.3,204.7,367.1,200.1,367.1z"/>
</g>
</svg>
