<svg width="40" height="40" viewBox="0 0 40 40" fill="none" xmlns="http://www.w3.org/2000/svg">
<circle cx="20" cy="20" r="20" fill="#F3F2F9" fill-opacity="0.1"/>
<circle cx="20" cy="20" r="20" fill="#F3F2F9" fill-opacity="0.32"/>
<ellipse cx="20.0699" cy="19.6339" rx="14.2222" ry="13.913" fill="#D9D5ED" fill-opacity="0.05"/>
<ellipse cx="20.0699" cy="19.6339" rx="14.2222" ry="13.913" fill="#F3F2F9" fill-opacity="0.4"/>
<g clip-path="url(#clip0)">
<path d="M19.1826 11.095L18.1022 10.2025C17.8137 9.95198 17.7851 9.5256 18.0376 9.24133C18.2901 8.95706 18.7318 8.9185 19.0332 9.1544L21.5398 11.2244C21.6987 11.3554 21.7901 11.5469 21.7901 11.7484C21.7901 11.9499 21.6987 12.1414 21.5398 12.2724L19.0332 14.3424C18.8399 14.5103 18.5673 14.5639 18.3212 14.4824C18.075 14.401 17.8941 14.1974 17.8486 13.9505C17.8031 13.7036 17.9002 13.4524 18.1022 13.2943L19.073 12.4929C14.8718 12.9725 11.8139 16.5635 12.1466 20.6268C12.4793 24.6901 16.0837 27.7747 20.3109 27.6139C24.5382 27.453 27.8789 24.1041 27.8779 20.0282C27.8845 18.3206 27.287 16.6618 26.1838 15.3253C26.0213 15.1322 25.9791 14.8698 26.0734 14.6384C26.1677 14.4071 26.3839 14.2424 26.6394 14.2075C26.8948 14.1726 27.1501 14.2727 27.3075 14.4697C28.6115 16.0493 29.3179 18.0099 29.3102 20.0282C29.3113 24.88 25.3079 28.8531 20.2742 28.996C15.2405 29.1389 11.0013 25.3996 10.7059 20.5562C10.4105 15.7128 14.1661 11.521 19.1826 11.095Z" fill="white"/>
<path d="M16.8591 16.3573L15.8246 17.0469C15.5159 17.2538 15.4267 17.668 15.6227 17.9836C15.8187 18.2993 16.2296 18.4029 16.5518 18.2179V22.7931H16.207C15.8261 22.7931 15.5173 23.1019 15.5173 23.4828C15.5173 23.8637 15.8261 24.1724 16.207 24.1724H18.276C18.6568 24.1724 18.9656 23.8637 18.9656 23.4828C18.9656 23.1019 18.6568 22.7931 18.276 22.7931H17.9311V16.931C17.9311 16.6768 17.7911 16.4431 17.5669 16.3231C17.3427 16.2031 17.0707 16.2162 16.8591 16.3573Z" fill="white"/>
<path d="M22.7586 24.1724C23.7108 24.1724 24.4828 23.4005 24.4828 22.4483V17.9655C24.4828 17.0133 23.7108 16.2414 22.7586 16.2414H21.7241C20.7719 16.2414 20 17.0133 20 17.9655V22.4483C20 23.4005 20.7719 24.1724 21.7241 24.1724H22.7586ZM21.3793 22.4483V17.9655C21.3793 17.7751 21.5337 17.6207 21.7241 17.6207H22.7586C22.9491 17.6207 23.1034 17.7751 23.1034 17.9655V22.4483C23.1034 22.6387 22.9491 22.7931 22.7586 22.7931H21.7241C21.5337 22.7931 21.3793 22.6387 21.3793 22.4483Z" fill="white"/>
</g>
<defs>
<clipPath id="clip0">
<rect width="20" height="20" fill="white" transform="translate(10 9)"/>
</clipPath>
</defs>
</svg>
