<svg width="38" height="38" viewBox="0 0 38 38" fill="none" xmlns="http://www.w3.org/2000/svg">
<circle cx="19" cy="19" r="18.5" stroke="white" stroke-opacity="0.3"/>
<path fill-rule="evenodd" clip-rule="evenodd" d="M12.5563 25.2981C12.8635 25.7208 13.4163 25.7682 13.7909 25.4039L18.8698 20.4649L24.0024 25.6651C24.3685 26.036 24.9202 25.9998 25.2347 25.5843C25.5493 25.1689 25.5075 24.5314 25.1414 24.1605L20.2087 19.1628L25.3216 14.1907C25.6963 13.8263 25.7509 13.1883 25.4437 12.7655C25.1365 12.3428 24.5838 12.2954 24.2091 12.6597L18.8928 17.8296L13.8018 12.6716C13.4358 12.3007 12.884 12.3368 12.5695 12.7523C12.2549 13.1678 12.2967 13.8052 12.6628 14.1761L17.5539 19.1317L12.6785 23.8729C12.3038 24.2372 12.2491 24.8753 12.5563 25.2981Z" fill="#C4C4C4" fill-opacity="0.7"/>
</svg>
