<svg width="36" height="36" viewBox="0 0 36 36" fill="none" xmlns="http://www.w3.org/2000/svg">
<circle cx="18" cy="18" r="18" fill="#D9D5ED" fill-opacity="0.08"/>
<circle cx="18" cy="18" r="18" fill="white" fill-opacity="0.24"/>
<ellipse cx="18.3526" cy="17.8336" rx="13.2098" ry="13.5983" fill="#D9D5ED" fill-opacity="0.02"/>
<ellipse cx="18.3526" cy="17.8336" rx="13.2098" ry="13.5983" fill="white" fill-opacity="0.16"/>
<path d="M18.081 26.2196C21.4841 24.8035 23.9471 22.3858 25.2756 19.9379C26.5837 17.5 26.7677 15.0722 25.6026 13.6156C24.55 12.3107 23.1806 11.815 21.7907 11.8555C20.4008 11.8959 19.0518 12.4928 18.081 13.3324C17.1101 12.4928 15.7611 11.8959 14.3712 11.8555C12.9814 11.815 11.6119 12.3107 10.5593 13.6156C9.39426 15.0722 9.57822 17.5 10.9068 19.9379C12.2149 22.3858 14.6778 24.8035 18.081 26.2196Z" fill="white"/>
</svg>
