<svg width="26" height="26" viewBox="0 0 26 26" fill="none" xmlns="http://www.w3.org/2000/svg">
<g clip-path="url(#clip0)">
<path d="M25.7235 10.5657L13.3991 1.54207C13.1614 1.3681 12.8385 1.3681 12.601 1.54207L0.276472 10.5657C-0.024559 10.7862 -0.0899653 11.2089 0.130476 11.5099C0.350917 11.811 0.773671 11.8763 1.07465 11.6559L13 2.92439L24.9253 11.6559C25.0455 11.744 25.1853 11.7864 25.3238 11.7864C25.5318 11.7864 25.7371 11.6907 25.8694 11.5099C26.0899 11.2089 26.0245 10.7862 25.7235 10.5657Z" fill="#BDC2C4"/>
<g filter="url(#filter0_d)">
<path d="M22.4578 11.8088C22.0848 11.8088 21.7823 12.1113 21.7823 12.4843V23.2372H16.378V17.3676C16.378 15.505 14.8626 13.9897 13 13.9897C11.1375 13.9897 9.62208 15.5051 9.62208 17.3676V23.2373H4.21779V12.4844C4.21779 12.1113 3.91528 11.8089 3.54224 11.8089C3.1692 11.8089 2.8667 12.1113 2.8667 12.4844V23.9129C2.8667 24.286 3.1692 24.5884 3.54224 24.5884H10.2976C10.6529 24.5884 10.9436 24.3139 10.9705 23.9655C10.9721 23.9497 10.9732 23.9324 10.9732 23.9129V17.3677C10.9732 16.25 11.8824 15.3408 13 15.3408C14.1177 15.3408 15.0269 16.2501 15.0269 17.3677V23.9129C15.0269 23.9323 15.0279 23.9493 15.0296 23.9649C15.0562 24.3136 15.347 24.5884 15.7025 24.5884H22.4579C22.8309 24.5884 23.1334 24.286 23.1334 23.9129V12.4844C23.1333 12.1113 22.8309 11.8088 22.4578 11.8088Z" fill="#BDC2C4"/>
</g>
</g>
<defs>
<filter id="filter0_d" x="2.8667" y="-3.19119" width="80.2667" height="72.7796" filterUnits="userSpaceOnUse" color-interpolation-filters="sRGB">
<feFlood flood-opacity="0" result="BackgroundImageFix"/>
<feColorMatrix in="SourceAlpha" type="matrix" values="0 0 0 0 0 0 0 0 0 0 0 0 0 0 0 0 0 0 127 0"/>
<feOffset dx="30" dy="15"/>
<feGaussianBlur stdDeviation="15"/>
<feColorMatrix type="matrix" values="0 0 0 0 0.745903 0 0 0 0 0.629881 0 0 0 0 0.0207639 0 0 0 1 0"/>
<feBlend mode="normal" in2="BackgroundImageFix" result="effect1_dropShadow"/>
<feBlend mode="normal" in="SourceGraphic" in2="effect1_dropShadow" result="shape"/>
</filter>
<clipPath id="clip0">
<rect width="26" height="26" fill="white"/>
</clipPath>
</defs>
</svg>
