<svg width="28" height="22" viewBox="0 0 28 22" fill="none" xmlns="http://www.w3.org/2000/svg">
<path d="M27.7595 17.2922C27.7595 17.2922 27.7594 17.2921 27.7593 17.292C26.9616 16.4944 26.0594 15.8488 25.0671 15.3618C26.9319 13.3133 27.6609 10.8521 27.6609 10.459C27.6609 10.0728 27.3938 9.74903 27.0344 9.6618C25.7013 9.3071 24.3056 9.20166 22.9353 9.34587C22.9859 9.09021 23.0291 8.83241 23.0634 8.57226C23.2715 6.9913 23.1678 5.40881 22.7553 3.86865C22.6331 3.41288 22.1701 3.17608 21.7502 3.28857C20.2049 3.70245 18.7539 4.42498 17.4909 5.4C16.6515 3.08005 15.3548 1.5925 14.5802 0.817903C14.4264 0.664067 14.2173 0.577606 13.9997 0.577606C13.7822 0.577606 13.5735 0.664067 13.4197 0.817903C12.6476 1.58998 11.3492 3.0777 10.5091 5.39995C9.24602 4.42493 7.79505 3.70239 6.24974 3.28852C5.81202 3.17138 5.36244 3.43093 5.24513 3.86848C4.95824 4.93877 4.58117 6.89943 5.06455 9.34582C3.69518 9.20172 2.30048 9.30688 0.968188 9.66104C0.60725 9.74722 0.338898 10.0721 0.338898 10.4594C0.338898 10.7576 0.979891 13.2164 2.93278 15.3617C1.94042 15.8487 1.03813 16.4943 0.240461 17.292C0.0864609 17.4459 0 17.6549 0 17.8725C0 18.09 0.0864609 18.2987 0.240297 18.4525C2.1554 20.3676 4.70165 21.4223 7.40999 21.4223C9.85332 21.4223 12.1647 20.5638 13.9998 18.9896C15.8349 20.5638 18.1463 21.4223 20.5897 21.4223C23.2901 21.4223 25.8295 20.3737 27.7426 18.4692C27.9011 18.3197 28.0001 18.1076 28.0001 17.8724C28 17.6458 27.9081 17.4407 27.7595 17.2922ZM22.4597 11.067C23.5592 10.8752 24.6904 10.8754 25.7899 11.0667C25.0149 13.196 23.5313 14.9685 21.5455 16.1148C20.2037 16.8896 18.7294 17.3228 17.2254 17.4008C19.6331 15.9778 20.9268 14.1118 21.548 13.0359C21.9101 12.4089 22.2157 11.7485 22.4597 11.067ZM2.20981 11.0666C3.30925 10.8754 4.44052 10.8751 5.53984 11.067C5.7838 11.7485 6.08956 12.4089 6.45154 13.0357C7.07257 14.1114 8.36637 15.9778 10.7742 17.4007C9.2703 17.3226 7.7957 16.8894 6.45395 16.1147C4.46863 14.9687 2.98512 13.1963 2.20981 11.0666ZM7.40994 19.7817C5.42981 19.7817 3.55321 19.1092 2.04072 17.8721C2.70304 17.3299 3.4358 16.8966 4.23002 16.5777C4.67332 16.9317 5.1438 17.2529 5.63363 17.5356C6.59318 18.0897 8.40432 18.9539 10.8855 19.0436C9.80651 19.5273 8.62788 19.7817 7.40994 19.7817ZM7.87237 12.2155C7.28946 11.206 6.01048 8.58517 6.64163 5.12854C7.88195 5.57314 9.03301 6.25138 10.0231 7.12282C9.85332 7.94888 9.76746 8.79183 9.76746 9.63522C9.76746 10.9436 9.97024 13.3378 11.4499 15.8924C9.46296 14.6699 8.39191 13.1153 7.87237 12.2155ZM13.9998 16.6656C11.621 13.8827 11.4081 10.8507 11.4081 9.63522C11.4081 8.41848 11.6214 5.38715 13.9998 2.60476C16.3782 5.38721 16.5915 8.41832 16.5915 9.63522C16.5915 10.8518 16.3781 13.8833 13.9998 16.6656ZM18.2321 9.63517C18.2321 8.79178 18.1462 7.94888 17.9764 7.12277C18.9667 6.25121 20.1178 5.57298 21.3583 5.12837C21.989 8.58511 20.7102 11.2058 20.1272 12.2154C19.606 13.1182 18.5346 14.6711 16.5496 15.8923C18.0287 13.3389 18.2321 10.9443 18.2321 9.63517ZM20.5896 19.7817C19.3717 19.7817 18.1931 19.5274 17.1141 19.0436C19.5993 18.9536 21.4119 18.0865 22.3658 17.5357C22.8557 17.2529 23.3262 16.9317 23.7695 16.5776C24.5637 16.8966 25.2965 17.3299 25.9588 17.872C24.4464 19.1092 22.5697 19.7817 20.5896 19.7817Z" fill="white" fill-opacity="0.7"/>
</svg>
