<svg width="11" height="11" viewBox="0 0 11 11" fill="none" xmlns="http://www.w3.org/2000/svg">
<path d="M5.5 11C8.53757 11 11 8.53757 11 5.5C11 2.46243 8.53757 0 5.5 0C2.46243 0 0 2.46243 0 5.5C0 8.53757 2.46243 11 5.5 11Z" fill="#E3F3F2"/>
<path d="M3.29618 5.5C3.29618 3.03661 4.91603 0.951553 7.1484 0.251284C6.62808 0.088064 6.07419 0 5.5 0C2.46241 0 0 2.46241 0 5.5C0 8.53759 2.46241 11 5.5 11C6.07419 11 6.62824 10.9119 7.14858 10.7486C4.91621 10.0484 3.29618 7.96339 3.29618 5.5Z" fill="#96C6D3"/>
<path d="M10.9989 5.59198H10.9991C10.9863 6.38797 10.8041 7.14287 10.4873 7.82223L10.4868 7.82201C10.0623 7.65006 9.76282 7.23418 9.76282 6.74787C9.76282 6.10805 10.2816 5.58931 10.9214 5.58931C10.9474 5.58931 10.9731 5.59042 10.9989 5.59198Z" fill="#96C6D3"/>
<path d="M5.49991 10.1378C5.97911 10.1378 6.38189 10.4659 6.49519 10.91C6.17239 10.9691 5.83982 11 5.49991 11C5.16001 11 4.82744 10.9691 4.50464 10.91C4.61794 10.4659 5.02072 10.1378 5.49991 10.1378Z" fill="#9984D6"/>
<path d="M6.82742 7.68428C7.19775 7.68428 7.49811 7.98464 7.49811 8.35498C7.49811 8.72554 7.19775 9.02568 6.82742 9.02568C6.45685 9.02568 6.15649 8.72554 6.15649 8.35498C6.15649 7.98464 6.45685 7.68428 6.82742 7.68428Z" fill="#96C6D3"/>
<path d="M8.04365 7.06645C8.3056 7.06645 8.51796 6.85409 8.51796 6.59214C8.51796 6.33018 8.3056 6.11783 8.04365 6.11783C7.78169 6.11783 7.56934 6.33018 7.56934 6.59214C7.56934 6.85409 7.78169 7.06645 8.04365 7.06645Z" fill="#96C6D3"/>
<path d="M7.02215 5.32983C7.72704 5.32983 8.29846 4.75841 8.29846 4.05353C8.29846 3.34864 7.72704 2.77722 7.02215 2.77722C6.31727 2.77722 5.74585 3.34864 5.74585 4.05353C5.74585 4.75841 6.31727 5.32983 7.02215 5.32983Z" fill="#96C6D3"/>
<path d="M3.29621 7.3166C3.70196 7.3166 4.03089 6.98768 4.03089 6.58192C4.03089 6.17617 3.70196 5.84724 3.29621 5.84724C2.89045 5.84724 2.56152 6.17617 2.56152 6.58192C2.56152 6.98768 2.89045 7.3166 3.29621 7.3166Z" fill="#9796EB"/>
<path d="M3.2962 7.3166C3.39806 7.3166 3.4951 7.29583 3.5833 7.25833C3.43248 6.81104 3.33762 6.33799 3.30705 5.84751C3.30343 5.84747 3.29985 5.84724 3.2962 5.84724C2.89032 5.84724 2.56152 6.17626 2.56152 6.58192C2.56152 6.98759 2.89032 7.3166 3.2962 7.3166Z" fill="#9984D6"/>
<path d="M1.93257 4.25591C2.18028 4.25591 2.38111 4.45674 2.38111 4.70422C2.38111 4.95193 2.18028 5.15276 1.93257 5.15276C1.68486 5.15276 1.48425 4.95193 1.48425 4.70422C1.48425 4.45674 1.68486 4.25591 1.93257 4.25591Z" fill="#9984D6"/>
<path d="M3.85051 0.251931C3.90027 0.435657 3.92715 0.628936 3.92715 0.828435C3.92715 2.04209 2.94321 3.02604 1.72933 3.02604C1.36499 3.02604 1.02131 2.93717 0.718728 2.78033H0.718506C1.39942 1.58555 2.51533 0.670924 3.85051 0.251709V0.251931Z" fill="#9984D6"/>
</svg>
