<svg width="65" height="65" viewBox="0 0 65 65" fill="none" xmlns="http://www.w3.org/2000/svg">
<circle cx="32.5" cy="32.5" r="32.5" fill="white" fill-opacity="0.29"/>
<circle cx="32.5" cy="32.5" r="32" stroke="white" stroke-opacity="0.4"/>
<path d="M33.0003 31.4752C38.3371 31.4752 42.6638 26.2201 42.6638 19.7376C42.6638 13.255 41.2433 8 33.0003 8C24.7573 8 23.3365 13.255 23.3365 19.7376C23.3365 26.2201 27.6633 31.4752 33.0003 31.4752Z" fill="#E1E1E1"/>
<path d="M14.7478 49.397C14.7461 49.0017 14.7445 49.2856 14.7478 49.397V49.397Z" fill="#E1E1E1"/>
<path d="M51.2518 49.7057C51.257 49.5975 51.2536 48.955 51.2518 49.7057V49.7057Z" fill="#E1E1E1"/>
<path d="M51.2314 48.923C51.0524 37.6304 49.5776 34.4126 38.2917 32.3758C38.2917 32.3758 36.703 34.4002 33.0002 34.4002C29.2973 34.4002 27.7084 32.3758 27.7084 32.3758C16.5456 34.3904 14.9811 37.5605 14.7754 48.5562C14.7585 49.4541 14.7507 49.5012 14.7477 49.397C14.7484 49.5923 14.7492 49.9535 14.7492 50.5834C14.7492 50.5834 17.4361 56 33.0002 56C48.564 56 51.2511 50.5834 51.2511 50.5834C51.2511 50.1787 51.2514 49.8973 51.2518 49.7059C51.2488 49.7703 51.2428 49.6454 51.2314 48.923Z" fill="#E1E1E1"/>
</svg>
