<svg width="20" height="20" viewBox="0 0 20 20" fill="none" xmlns="http://www.w3.org/2000/svg">
<path d="M10.8332 15C10.8332 15.4602 10.4601 15.8333 9.99992 15.8333C9.53971 15.8333 9.16663 15.4602 9.16663 15C9.16663 14.5398 9.53971 14.1667 9.99992 14.1667C10.4601 14.1667 10.8332 14.5398 10.8332 15Z" fill="#E1E1E1" fill-opacity="0.6"/>
<path d="M10 20C4.48578 20 0 15.5142 0 10C0 4.48578 4.48578 0 10 0C15.5142 0 20 4.48578 20 10C20 15.5142 15.5142 20 10 20ZM10 1.25C5.17502 1.25 1.25 5.17502 1.25 10C1.25 14.825 5.17502 18.75 10 18.75C14.825 18.75 18.75 14.825 18.75 10C18.75 5.17502 14.825 1.25 10 1.25Z" fill="#E1E1E1" fill-opacity="0.6"/>
<path d="M10.0001 12.2917C9.65509 12.2917 9.37509 12.0117 9.37509 11.6667V10.825C9.37509 10.0317 9.87847 9.32083 10.6268 9.0567C11.6226 8.7059 12.2918 7.64496 12.2918 6.875C12.2918 5.61081 11.2643 4.58328 10.0001 4.58328C8.7359 4.58328 7.70837 5.61081 7.70837 6.875C7.70837 7.22 7.42837 7.5 7.08337 7.5C6.73837 7.5 6.45837 7.22 6.45837 6.875C6.45837 4.92249 8.04681 3.33328 10.0001 3.33328C11.9534 3.33328 13.5418 4.92249 13.5418 6.875C13.5418 8.26508 12.4442 9.74091 11.0426 10.2359C10.7926 10.3233 10.6251 10.5608 10.6251 10.8258V11.6667C10.6251 12.0117 10.3451 12.2917 10.0001 12.2917Z" fill="#E1E1E1" fill-opacity="0.6"/>
</svg>
