<svg width="25" height="24" viewBox="0 0 25 24" fill="none" xmlns="http://www.w3.org/2000/svg">
<path d="M24.7372 0.163169C24.5706 0.0295748 24.351 -0.0262533 24.1373 0.0108248L7.92637 2.82332C7.57778 2.88384 7.32422 3.17517 7.32422 3.51525V16.6393C6.54614 15.9699 5.51909 15.5621 4.39453 15.5621C1.97139 15.5621 0 17.4547 0 19.7809C0 22.1071 1.97139 23.9996 4.39453 23.9996C6.81768 23.9996 8.78906 22.1071 8.78906 19.7809V9.25893L23.5352 6.70059V14.53C22.7571 13.8606 21.73 13.4527 20.6055 13.4527C18.1823 13.4527 16.2109 15.3453 16.2109 17.6715C16.2109 19.9977 18.1823 21.8902 20.6055 21.8902C23.0286 21.8902 25 19.9977 25 17.6715V0.702747C25 0.494387 24.9038 0.296762 24.7372 0.163169ZM4.39453 22.5934C2.7791 22.5934 1.46484 21.3317 1.46484 19.7809C1.46484 18.2301 2.7791 16.9684 4.39453 16.9684C6.00996 16.9684 7.32422 18.2301 7.32422 19.7809C7.32422 21.3317 6.00996 22.5934 4.39453 22.5934ZM8.78906 7.82995V4.10273L23.5352 1.54434V5.27156L8.78906 7.82995ZM20.6055 20.484C18.99 20.484 17.6758 19.2223 17.6758 17.6715C17.6758 16.1207 18.99 14.859 20.6055 14.859C22.2209 14.859 23.5352 16.1207 23.5352 17.6715C23.5352 19.2223 22.2209 20.484 20.6055 20.484Z" fill="white" fill-opacity="0.7"/>
</svg>
