<svg width="28" height="24" viewBox="0 0 28 24" fill="none" xmlns="http://www.w3.org/2000/svg">
<path d="M28 12C28 10.247 28.0001 7.37238 27.2863 5.01885C27.9638 3.40893 27.5987 1.69945 27.5513 1.49555C27.4164 0.918574 26.9347 0.515625 26.3801 0.515625C26.1937 0.515625 24.6358 0.551309 23.2073 1.69535C20.4536 0.882891 16.2401 0.515625 14 0.515625C11.7599 0.515625 7.54644 0.882891 4.7927 1.69535C3.36416 0.551309 1.80633 0.515625 1.6199 0.515625C1.06537 0.515625 0.583789 0.918457 0.448328 1.49713C0.401188 1.70027 0.0370234 3.41033 0.713672 5.01885C0 7.37232 0 10.247 0 12C0 13.753 0 16.6277 0.713672 18.9812C0.0379531 20.5883 0.401242 22.2992 0.448766 22.5047C0.583789 23.0815 1.06537 23.4844 1.6199 23.4844C1.80633 23.4844 3.36416 23.4487 4.7927 22.3046C7.54644 23.1171 11.7599 23.4844 14 23.4844C16.2401 23.4844 20.4536 23.1171 23.2073 22.3046C24.6358 23.4487 26.1937 23.4844 26.3801 23.4844C26.9348 23.4844 27.4164 23.0814 27.5517 22.5029C27.5988 22.2997 27.9629 20.5897 27.2863 18.9812C28 16.6277 28 13.753 28 12ZM25.6856 19.4827C26.0982 20.2543 26.0759 21.1791 26.0197 21.6901C25.5419 21.6146 24.6742 21.3836 23.9397 20.6773C23.7249 20.4707 23.4244 20.4002 23.1488 20.4919C20.6145 21.3342 16.1913 21.7266 14 21.7266C11.8087 21.7266 7.38555 21.3342 4.85116 20.4919C4.77132 20.4654 4.68945 20.4524 4.60824 20.4524C4.40874 20.4524 4.21291 20.5305 4.06022 20.6773C3.3256 21.3837 2.45788 21.6146 1.98034 21.6901C1.92407 21.1783 1.90192 20.254 2.31437 19.4827C2.43512 19.2568 2.45629 18.9853 2.37207 18.741C1.64062 16.6208 1.64062 13.7283 1.64062 12C1.64062 10.2717 1.64062 7.37918 2.37207 5.25897C2.45629 5.0148 2.43518 4.74316 2.31437 4.51728C1.90181 3.74578 1.92418 2.82088 1.98029 2.30994C2.45809 2.38541 3.32566 2.61633 4.06022 3.32268C4.27503 3.52922 4.57538 3.59971 4.85116 3.50807C7.38555 2.66584 11.8087 2.27344 14 2.27344C16.1913 2.27344 20.6145 2.66584 23.1488 3.50807C23.4244 3.59965 23.7249 3.52928 23.9397 3.32273C24.6743 2.61633 25.5421 2.38535 26.0197 2.30994C26.0758 2.82141 26.0981 3.74602 25.6856 4.51734C25.5649 4.74316 25.5438 5.0148 25.628 5.25897C26.3594 7.37918 26.3594 10.2717 26.3594 12C26.3594 13.7283 26.3594 16.6208 25.628 18.7411C25.5438 18.9853 25.5649 19.2568 25.6856 19.4827Z" fill="white" fill-opacity="0.7"/>
<path d="M16.6569 9.44366C16.5273 9.1214 16.2311 8.91269 15.9036 8.91269H12.0781C11.6251 8.91269 11.2578 9.3062 11.2578 9.79159C11.2578 10.277 11.6251 10.6705 12.0781 10.6705H14.0006L11.4817 13.5283C11.2568 13.7834 11.1951 14.1574 11.3248 14.4797C11.4545 14.8019 11.7506 15.0106 12.0781 15.0106H15.9036C16.3566 15.0106 16.7239 14.6171 16.7239 14.1317C16.7239 13.6464 16.3566 13.2528 15.9036 13.2528H13.9811L16.5 10.395C16.7249 10.1399 16.7866 9.76593 16.6569 9.44366Z" fill="white" fill-opacity="0.7"/>
<path d="M8.4899 11.3207C8.36024 10.9985 8.0641 10.7898 7.73658 10.7898H5.18803C4.735 10.7898 4.36772 11.1833 4.36772 11.6687C4.36772 12.1541 4.735 12.5476 5.18803 12.5476H5.83356L4.59161 13.9566C4.36674 14.2118 4.30505 14.5858 4.43471 14.908C4.56438 15.2303 4.86051 15.439 5.18803 15.439H7.73658C8.18961 15.439 8.55689 15.0455 8.55689 14.5601C8.55689 14.0747 8.18961 13.6812 7.73658 13.6812H7.09105L8.333 12.2721C8.55782 12.017 8.61951 11.643 8.4899 11.3207Z" fill="white" fill-opacity="0.7"/>
<path d="M23.4559 9.582C23.3263 9.25974 23.0301 9.05103 22.7026 9.05103H20.1541C19.701 9.05103 19.3337 9.44454 19.3337 9.92993C19.3337 10.4153 19.701 10.8088 20.1541 10.8088H20.7996L19.5577 12.2179C19.3328 12.473 19.2711 12.847 19.4008 13.1693C19.5304 13.4916 19.8265 13.7003 20.1541 13.7003H22.7026C23.1556 13.7003 23.5229 13.3068 23.5229 12.8214C23.5229 12.336 23.1556 11.9425 22.7026 11.9425H22.057L23.299 10.5334C23.5238 10.2783 23.5855 9.90427 23.4559 9.582Z" fill="white" fill-opacity="0.7"/>
</svg>
