<svg width="15" height="15" viewBox="0 0 15 15" fill="none" xmlns="http://www.w3.org/2000/svg">
<g clip-path="url(#clip0)">
<g filter="url(#filter0_d)">
<path d="M8.717 0.549218C8.543 0.466218 8.338 0.488218 8.188 0.609218L3.324 4.50022H1C0.449 4.50022 0 4.94922 0 5.50022V9.50022C0 10.0522 0.449 10.5002 1 10.5002H3.324L8.187 14.3912C8.278 14.4632 8.389 14.5002 8.5 14.5002C8.574 14.5002 8.648 14.4832 8.717 14.4502C8.89 14.3672 9 14.1922 9 14.0002V1.00022C9 0.808218 8.89 0.633218 8.717 0.549218Z" fill="#E1E1E1"/>
</g>
<g filter="url(#filter1_d)">
<path d="M11.5307 3.96423C11.3337 3.77023 11.0177 3.77323 10.8237 3.96823C10.6297 4.16523 10.6317 4.48123 10.8277 4.67623C11.5837 5.42223 11.9997 6.42523 11.9997 7.50023C11.9997 8.57523 11.5837 9.57823 10.8277 10.3242C10.6317 10.5172 10.6297 10.8342 10.8237 11.0312C10.9217 11.1302 11.0507 11.1792 11.1787 11.1792C11.3057 11.1792 11.4327 11.1312 11.5307 11.0342C12.4787 10.1012 12.9997 8.84523 12.9997 7.50023C12.9997 6.15523 12.4787 4.89923 11.5307 3.96423Z" fill="#E1E1E1"/>
</g>
<g filter="url(#filter2_d)">
<path d="M12.942 2.55529C12.745 2.36029 12.429 2.36229 12.234 2.55829C12.04 2.75429 12.042 3.07129 12.237 3.26529C13.374 4.39229 14 5.89629 14 7.50029C14 9.10429 13.374 10.6073 12.237 11.7343C12.042 11.9293 12.04 12.2463 12.234 12.4423C12.333 12.5403 12.461 12.5893 12.589 12.5893C12.716 12.5893 12.844 12.5413 12.942 12.4443C14.27 11.1293 15 9.37329 15 7.50029C15 5.62729 14.27 3.87129 12.942 2.55529Z" fill="#E1E1E1"/>
</g>
</g>
<defs>
<filter id="filter0_d" x="-5.0135" y="0.499634" width="19.027" height="37.8147" filterUnits="userSpaceOnUse" color-interpolation-filters="sRGB">
<feFlood flood-opacity="0" result="BackgroundImageFix"/>
<feColorMatrix in="SourceAlpha" type="matrix" values="0 0 0 0 0 0 0 0 0 0 0 0 0 0 0 0 0 0 127 0"/>
<feOffset dy="18.8006"/>
<feGaussianBlur stdDeviation="2.50675"/>
<feColorMatrix type="matrix" values="0 0 0 0 0 0 0 0 0 0 0 0 0 0 0 0 0 0 0.25 0"/>
<feBlend mode="normal" in2="BackgroundImageFix" result="effect1_dropShadow"/>
<feBlend mode="normal" in="SourceGraphic" in2="effect1_dropShadow" result="shape"/>
</filter>
<filter id="filter1_d" x="5.66595" y="3.82034" width="12.3473" height="31.173" filterUnits="userSpaceOnUse" color-interpolation-filters="sRGB">
<feFlood flood-opacity="0" result="BackgroundImageFix"/>
<feColorMatrix in="SourceAlpha" type="matrix" values="0 0 0 0 0 0 0 0 0 0 0 0 0 0 0 0 0 0 127 0"/>
<feOffset dy="18.8006"/>
<feGaussianBlur stdDeviation="2.50675"/>
<feColorMatrix type="matrix" values="0 0 0 0 0 0 0 0 0 0 0 0 0 0 0 0 0 0 0.25 0"/>
<feBlend mode="normal" in2="BackgroundImageFix" result="effect1_dropShadow"/>
<feBlend mode="normal" in="SourceGraphic" in2="effect1_dropShadow" result="shape"/>
</filter>
<filter id="filter2_d" x="7.0761" y="2.41016" width="12.9374" height="33.9932" filterUnits="userSpaceOnUse" color-interpolation-filters="sRGB">
<feFlood flood-opacity="0" result="BackgroundImageFix"/>
<feColorMatrix in="SourceAlpha" type="matrix" values="0 0 0 0 0 0 0 0 0 0 0 0 0 0 0 0 0 0 127 0"/>
<feOffset dy="18.8006"/>
<feGaussianBlur stdDeviation="2.50675"/>
<feColorMatrix type="matrix" values="0 0 0 0 0 0 0 0 0 0 0 0 0 0 0 0 0 0 0.25 0"/>
<feBlend mode="normal" in2="BackgroundImageFix" result="effect1_dropShadow"/>
<feBlend mode="normal" in="SourceGraphic" in2="effect1_dropShadow" result="shape"/>
</filter>
<clipPath id="clip0">
<rect width="15" height="15" fill="white"/>
</clipPath>
</defs>
</svg>
