<svg width="15" height="15" viewBox="0 0 15 15" fill="none" xmlns="http://www.w3.org/2000/svg">
<g clip-path="url(#clip0)">
<path d="M7.69868 1.69493C7.55093 1.62004 7.37369 1.63463 7.24012 1.73254L3.82589 4.23635H0.439454C0.196729 4.23635 0 4.43311 0 4.6758V10.3243C0 10.567 0.196729 10.7637 0.439454 10.7637H3.82589L7.24015 13.2675C7.31697 13.3238 7.40823 13.3526 7.50007 13.3526C7.56781 13.3526 7.63589 13.3369 7.69868 13.3051C7.84636 13.2302 7.93947 13.0787 7.93947 12.9131V2.08692C7.93947 1.92133 7.84636 1.76978 7.69868 1.69493Z" fill="#619CAD"/>
<path d="M13.0638 7.50015L14.8712 5.69274C15.0429 5.52114 15.0429 5.24288 14.8712 5.07126C14.6997 4.89967 14.4215 4.89967 14.2498 5.07126L12.4424 6.87868L10.6349 5.07126C10.4633 4.89967 10.1851 4.89967 10.0135 5.07126C9.84187 5.24285 9.84187 5.52111 10.0135 5.69274L11.8209 7.50015L10.0135 9.30757C9.84187 9.47916 9.84187 9.75742 10.0135 9.92904C10.0993 10.0149 10.2117 10.0577 10.3242 10.0577C10.4367 10.0577 10.5492 10.0148 10.6349 9.92904L12.4423 8.12163L14.2497 9.92904C14.3356 10.0149 14.448 10.0577 14.5605 10.0577C14.6729 10.0577 14.7854 10.0148 14.8712 9.92904C15.0428 9.75742 15.0428 9.47919 14.8712 9.30757L13.0638 7.50015Z" fill="#619CAD"/>
</g>
<defs>
<clipPath id="clip0">
<rect width="15" height="15" fill="white"/>
</clipPath>
</defs>
</svg>
