<svg width="27" height="25" viewBox="0 0 27 25" fill="none" xmlns="http://www.w3.org/2000/svg">
<path d="M13.5 0C9.57451 0 6.38086 2.95708 6.38086 6.5918C6.38086 10.2265 9.57451 13.1836 13.5 13.1836C17.4255 13.1836 20.6191 10.2265 20.6191 6.5918C20.6191 2.95708 17.4255 0 13.5 0ZM13.5 11.7188C10.4468 11.7188 7.96289 9.4188 7.96289 6.5918C7.96289 3.7648 10.4468 1.46484 13.5 1.46484C16.5532 1.46484 19.0371 3.7648 19.0371 6.5918C19.0371 9.4188 16.5532 11.7188 13.5 11.7188Z" fill="white" fill-opacity="0.7"/>
<path d="M15.706 14.6973H11.2939C7.64459 14.6973 4.04309 16.2574 1.63477 19.6024V25H25.3652V19.6024C22.9604 16.2622 19.3599 14.6973 15.706 14.6973ZM23.7833 23.5352H23.7832H3.2168V20.0506C5.06413 17.6115 8.06583 16.1621 11.294 16.1621H15.7061C18.9342 16.1621 21.9359 17.6115 23.7833 20.0506V23.5352Z" fill="white" fill-opacity="0.7"/>
</svg>
