<svg width="23" height="23" viewBox="0 0 23 23" fill="none" xmlns="http://www.w3.org/2000/svg">
<g clip-path="url(#clip0)">
<g filter="url(#filter0_d)">
<path d="M13.3661 0.842234C13.0993 0.714967 12.7849 0.7487 12.5549 0.934234L5.0968 6.90043H1.53333C0.688467 6.90043 0 7.5889 0 8.43377V14.5671C0 15.4135 0.688467 16.1004 1.53333 16.1004H5.0968L12.5534 22.0666C12.6929 22.177 12.8631 22.2338 13.0333 22.2338C13.1468 22.2338 13.2603 22.2077 13.3661 22.1571C13.6313 22.0298 13.8 21.7615 13.8 21.4671V1.53377C13.8 1.23937 13.6313 0.971034 13.3661 0.842234Z" fill="#E1E1E1" fill-opacity="0.7"/>
</g>
<g filter="url(#filter1_d)">
<path d="M17.6809 6.07855C17.3788 5.78109 16.8943 5.78569 16.5968 6.08469C16.2993 6.38675 16.3024 6.87129 16.6029 7.17029C17.7621 8.31415 18.4 9.85209 18.4 11.5004C18.4 13.1488 17.7621 14.6867 16.6029 15.8306C16.3024 16.1265 16.2993 16.6126 16.5968 16.9146C16.7471 17.0664 16.9449 17.1416 17.1411 17.1416C17.3359 17.1416 17.5306 17.068 17.6809 16.9192C19.1345 15.4886 19.9333 13.5628 19.9333 11.5004C19.9333 9.43809 19.1345 7.51222 17.6809 6.07855Z" fill="#E1E1E1" fill-opacity="0.7"/>
</g>
<g filter="url(#filter2_d)">
<path d="M19.8443 3.91811C19.5423 3.61911 19.0577 3.62217 18.7587 3.92271C18.4613 4.22324 18.4643 4.70931 18.7633 5.00677C20.5067 6.73484 21.4666 9.04097 21.4666 11.5004C21.4666 13.9599 20.5067 16.2645 18.7633 17.9926C18.4643 18.2916 18.4613 18.7776 18.7587 19.0782C18.9105 19.2284 19.1068 19.3036 19.3031 19.3036C19.4978 19.3036 19.6941 19.23 19.8443 19.0812C21.8806 17.0649 22.9999 14.3724 22.9999 11.5004C22.9999 8.62851 21.8806 5.93597 19.8443 3.91811Z" fill="#E1E1E1" fill-opacity="0.7"/>
</g>
</g>
<defs>
<filter id="filter0_d" x="-4" y="0.766205" width="21.8" height="40.4676" filterUnits="userSpaceOnUse" color-interpolation-filters="sRGB">
<feFlood flood-opacity="0" result="BackgroundImageFix"/>
<feColorMatrix in="SourceAlpha" type="matrix" values="0 0 0 0 0 0 0 0 0 0 0 0 0 0 0 0 0 0 127 0"/>
<feOffset dy="15"/>
<feGaussianBlur stdDeviation="2"/>
<feColorMatrix type="matrix" values="0 0 0 0 0 0 0 0 0 0 0 0 0 0 0 0 0 0 0.25 0"/>
<feBlend mode="normal" in2="BackgroundImageFix" result="effect1_dropShadow"/>
<feBlend mode="normal" in="SourceGraphic" in2="effect1_dropShadow" result="shape"/>
</filter>
<filter id="filter1_d" x="12.3756" y="5.85793" width="11.5577" height="30.2836" filterUnits="userSpaceOnUse" color-interpolation-filters="sRGB">
<feFlood flood-opacity="0" result="BackgroundImageFix"/>
<feColorMatrix in="SourceAlpha" type="matrix" values="0 0 0 0 0 0 0 0 0 0 0 0 0 0 0 0 0 0 127 0"/>
<feOffset dy="15"/>
<feGaussianBlur stdDeviation="2"/>
<feColorMatrix type="matrix" values="0 0 0 0 0 0 0 0 0 0 0 0 0 0 0 0 0 0 0.25 0"/>
<feBlend mode="normal" in2="BackgroundImageFix" result="effect1_dropShadow"/>
<feBlend mode="normal" in="SourceGraphic" in2="effect1_dropShadow" result="shape"/>
</filter>
<filter id="filter2_d" x="14.5374" y="3.69557" width="12.4626" height="34.608" filterUnits="userSpaceOnUse" color-interpolation-filters="sRGB">
<feFlood flood-opacity="0" result="BackgroundImageFix"/>
<feColorMatrix in="SourceAlpha" type="matrix" values="0 0 0 0 0 0 0 0 0 0 0 0 0 0 0 0 0 0 127 0"/>
<feOffset dy="15"/>
<feGaussianBlur stdDeviation="2"/>
<feColorMatrix type="matrix" values="0 0 0 0 0 0 0 0 0 0 0 0 0 0 0 0 0 0 0.25 0"/>
<feBlend mode="normal" in2="BackgroundImageFix" result="effect1_dropShadow"/>
<feBlend mode="normal" in="SourceGraphic" in2="effect1_dropShadow" result="shape"/>
</filter>
<clipPath id="clip0">
<rect width="23" height="23" fill="white"/>
</clipPath>
</defs>
</svg>
