<?xml version="1.0" encoding="utf-8"?>
<!-- Generator: Adobe Illustrator 21.1.0, SVG Export Plug-In . SVG Version: 6.00 Build 0)  -->
<svg version="1.1" id="Capa_1" xmlns="http://www.w3.org/2000/svg" xmlns:xlink="http://www.w3.org/1999/xlink" x="0px" y="0px"
	 viewBox="0 0 477.8 477.8" style="enable-background:new 0 0 477.8 477.8;" xml:space="preserve">
<style type="text/css">
	.st0{fill:#FFFFFF;}
</style>
<g>
	<g>
		<path class="st0" d="M472.8,226.8l-34.1-34.1L251,5c-6.7-6.7-17.5-6.7-24.1,0L39.1,192.7L5,226.9c-6.5,6.8-6.4,17.6,0.4,24.1
			c6.6,6.4,17.1,6.4,23.7,0l5-5v214.8c0,9.4,7.6,17.1,17.1,17.1h375.5c9.4,0,17.1-7.6,17.1-17.1V246l5,5c6.8,6.5,17.6,6.4,24.1-0.4
			C479.2,243.9,479.2,233.5,472.8,226.8z M290.1,443.7H187.7V307.2h102.4V443.7z M409.6,443.7h-85.3V290.1c0-9.4-7.6-17.1-17.1-17.1
			H170.6c-9.4,0-17.1,7.6-17.1,17.1v153.6H68.2V211.8L238.9,41.2l170.7,170.7V443.7z"/>
	</g>
</g>
</svg>
