<?xml version="1.0" encoding="utf-8"?>
<!-- Generator: Adobe Illustrator 21.1.0, SVG Export Plug-In . SVG Version: 6.00 Build 0)  -->
<svg version="1.1" id="Capa_1" xmlns="http://www.w3.org/2000/svg" xmlns:xlink="http://www.w3.org/1999/xlink" x="0px" y="0px"
	 viewBox="0 0 477.9 477.9" style="enable-background:new 0 0 477.9 477.9;" xml:space="preserve">
<style type="text/css">
	.st0{fill:#FFFFFF;}
</style>
<g>
	<g>
		<path class="st0" d="M469.1,170.1c-5.5-6.1-12.9-10.1-21.1-11.2v0l-127-17.5L270.8,21.2c-7.3-17.6-27.5-25.9-45.1-18.5
			c-8.4,3.5-15,10.2-18.5,18.5l-50.3,120.1l-127,17.5c-18.9,2.6-32.1,20.1-29.5,39c1.1,8.1,5.1,15.6,11.2,21.1l95.7,85.3L87.6,438.2
			c-2.1,13.6,4.1,27.1,15.8,34.4c11.6,7.4,26.4,7.1,37.7-0.7l97.8-66.5l97.8,66.6c15.8,10.7,37.2,6.6,48-9.2
			c4.9-7.2,6.9-15.9,5.6-24.5l-19.7-134l95.7-85.3C480.6,206.3,481.8,184.4,469.1,170.1z M341,285c-4.3,3.8-6.4,9.5-5.5,15.2
			L356,443.6l-107.4-73c-5.8-3.9-13.4-3.9-19.2,0l-108,72.6l21-143c0.8-5.7-1.3-11.3-5.5-15.2L34.5,192.7l136.7-18.9
			c6-0.8,11.1-4.8,13.4-10.3l54.6-129.4c0.1,0.1,0.1,0.2,0.1,0.3l54,129.1c2.3,5.6,7.4,9.5,13.4,10.3l136.8,19.7L341,285z"/>
	</g>
</g>
</svg>
