<svg width="88" height="87" viewBox="0 0 88 87" fill="none" xmlns="http://www.w3.org/2000/svg">
<ellipse cx="43.5326" cy="43.5" rx="43.5326" ry="43.5" fill="#F3F2F9" fill-opacity="0.1"/>
<ellipse cx="43.5326" cy="43.5" rx="43.5326" ry="43.5" fill="#F3F2F9" fill-opacity="0.32"/>
<ellipse cx="43.6855" cy="42.7037" rx="30.9565" ry="30.2609" fill="#D9D5ED" fill-opacity="0.05"/>
<ellipse cx="43.6855" cy="42.7037" rx="30.9565" ry="30.2609" fill="#F3F2F9" fill-opacity="0.4"/>
<path d="M39 34C39.7956 34 40.5587 34.3161 41.1213 34.8787C41.6839 35.4413 42 36.2044 42 37V49C42 49.7956 41.6839 50.5587 41.1213 51.1213C40.5587 51.6839 39.7956 52 39 52C38.2044 52 37.4413 51.6839 36.8787 51.1213C36.3161 50.5587 36 49.7956 36 49V37C36 36.2044 36.3161 35.4413 36.8787 34.8787C37.4413 34.3161 38.2044 34 39 34ZM49 34C49.7956 34 50.5587 34.3161 51.1213 34.8787C51.6839 35.4413 52 36.2044 52 37V49C52 49.7956 51.6839 50.5587 51.1213 51.1213C50.5587 51.6839 49.7956 52 49 52C48.2044 52 47.4413 51.6839 46.8787 51.1213C46.3161 50.5587 46 49.7956 46 49V37C46 36.2044 46.3161 35.4413 46.8787 34.8787C47.4413 34.3161 48.2044 34 49 34Z" fill="white"/>
</svg>
