<?xml version="1.0" encoding="utf-8"?>
<!-- Generator: Adobe Illustrator 21.1.0, SVG Export Plug-In . SVG Version: 6.00 Build 0)  -->
<svg version="1.1" id="Capa_1" xmlns="http://www.w3.org/2000/svg" xmlns:xlink="http://www.w3.org/1999/xlink" x="0px" y="0px"
	 viewBox="0 0 477.9 477.9" style="enable-background:new 0 0 477.9 477.9;" xml:space="preserve">
<style type="text/css">
	.st0{fill:#FFFFFF;}
</style>
<g>
	<g>
		<path class="st0" d="M238.9,0C107,0,0,107,0,238.9s107,238.9,238.9,238.9s238.9-107,238.9-238.9C477.7,107,370.8,0.1,238.9,0z
			 M238.9,443.7c-113.1,0-204.8-91.7-204.8-204.8S125.8,34.1,238.9,34.1s204.8,91.7,204.8,204.8C443.6,352,352,443.6,238.9,443.7z"
			/>
	</g>
</g>
<g>
	<g>
		<path class="st0" d="M339.6,231.3c-1.7-3.3-4.3-6-7.7-7.7l-136.5-68.3c-8.4-4.2-18.7-0.8-22.9,7.6c-1.2,2.4-1.8,5-1.8,7.6v136.5
			c0,9.4,7.6,17.1,17.1,17.1c2.7,0,5.3-0.6,7.6-1.8l136.5-68.3C340.3,250,343.8,239.8,339.6,231.3z M204.8,279.6v-81.3l81.3,40.7
			L204.8,279.6z"/>
	</g>
</g>
</svg>
