<?xml version="1.0" encoding="utf-8"?>
<!-- Generator: Adobe Illustrator 21.1.0, SVG Export Plug-In . SVG Version: 6.00 Build 0)  -->
<svg version="1.1" id="Capa_1" xmlns="http://www.w3.org/2000/svg" xmlns:xlink="http://www.w3.org/1999/xlink" x="0px" y="0px"
	 viewBox="0 0 565.4 564.5" style="enable-background:new 0 0 565.4 564.5;" xml:space="preserve">
<style type="text/css">
	.st0{fill:#FFFFFF;}
</style>
<g>
	<g>
		<path class="st0" d="M299.6,299.3l248.4,0c9.4,0.2,17.2-7.3,17.4-16.8c0.2-9.4-7.3-17.2-16.8-17.4c-0.2,0-0.4,0-0.6,0l-248.4,0
			l0-248.4c-0.2-9.4-7.9-16.9-17.4-16.8c-9.2,0.2-16.6,7.6-16.8,16.8l0,248.4H17.1c-9.4,0-17.1,7.6-17.1,17.1
			c0,9.4,7.6,17.1,17.1,17.1h248.4v248.4c0.2,9.4,7.9,16.9,17.4,16.8c9.2-0.2,16.6-7.6,16.8-16.8L299.6,299.3z"/>
	</g>
</g>
</svg>
