<?xml version="1.0" encoding="utf-8"?>
<!-- Generator: Adobe Illustrator 21.1.0, SVG Export Plug-In . SVG Version: 6.00 Build 0)  -->
<svg version="1.1" id="Capa_1" xmlns="http://www.w3.org/2000/svg" xmlns:xlink="http://www.w3.org/1999/xlink" x="0px" y="0px"
	 viewBox="0 0 477.9 477.9" style="enable-background:new 0 0 477.9 477.9;" xml:space="preserve">
<style type="text/css">
	.st0{fill:#FFFFFF;}
</style>
<path class="st0" d="M444.6,117.9l-85.3-85.3c-6.8-6.5-17.6-6.4-24.1,0.4c-6.4,6.6-6.4,17.1,0,23.7l56.2,56.2H79.5
	c-28.3,0-51.2,22.9-51.2,51.2v85.3c0,9.4,7.6,17.1,17.1,17.1c9.4,0,17.1-7.6,17.1-17.1v-85.3c0-9.4,7.6-17.1,17.1-17.1h311.9l0,0
	l-56.2,56.2c-6.5,6.8-6.4,17.6,0.4,24.1c6.6,6.4,17.1,6.4,23.7,0l85.3-85.3C451.3,135.3,451.3,124.5,444.6,117.9z"/>
<path class="st0" d="M33.2,360l85.3,85.3c6.8,6.5,17.6,6.4,24.1-0.4c6.4-6.6,6.4-17.1,0-23.7L86.5,365h311.9
	c28.3,0,51.2-22.9,51.2-51.2v-85.3c0-9.4-7.6-17.1-17.1-17.1c-9.4,0-17.1,7.6-17.1,17.1v85.3c0,9.4-7.6,17.1-17.1,17.1H86.5l0,0
	l56.2-56.2c6.5-6.8,6.4-17.6-0.4-24.1c-6.6-6.4-17.1-6.4-23.7,0l-85.3,85.3C26.6,342.6,26.6,353.4,33.2,360z"/>
</svg>
