<svg width="40" height="40" viewBox="0 0 40 40" fill="none" xmlns="http://www.w3.org/2000/svg">
<circle cx="20" cy="20" r="20" fill="#F3F2F9" fill-opacity="0.1"/>
<circle cx="20" cy="20" r="20" fill="#F3F2F9" fill-opacity="0.32"/>
<ellipse cx="20.0699" cy="19.6339" rx="14.2222" ry="13.913" fill="#D9D5ED" fill-opacity="0.05"/>
<ellipse cx="20.0699" cy="19.6339" rx="14.2222" ry="13.913" fill="#F3F2F9" fill-opacity="0.4"/>
<g clip-path="url(#clip0)">
<path d="M20.7872 11.1055L21.8276 10.2135C22.1054 9.96306 22.133 9.53689 21.8898 9.25275C21.6466 8.96862 21.2213 8.93007 20.931 9.16587L18.5172 11.2348C18.3643 11.3659 18.2762 11.5572 18.2762 11.7586C18.2762 11.96 18.3643 12.1514 18.5172 12.2824L20.931 14.3514C21.1172 14.5192 21.3797 14.5728 21.6167 14.4914C21.8538 14.41 22.028 14.2064 22.0718 13.9597C22.1156 13.7129 22.0221 13.4618 21.8276 13.3038L20.8928 12.5028C24.9384 12.9822 27.8831 16.5714 27.5627 20.6328C27.2424 24.6941 23.7714 27.7773 19.7006 27.6166C15.6298 27.4558 12.4128 24.1084 12.4138 20.0345C12.4074 18.3277 12.9828 16.6697 14.0452 15.3338C14.2017 15.1408 14.2423 14.8786 14.1515 14.6473C14.0607 14.416 13.8525 14.2515 13.6065 14.2166C13.3605 14.1816 13.1147 14.2818 12.9631 14.4786C11.7074 16.0575 11.0271 18.0171 11.0345 20.0345C11.0334 24.8839 14.8886 28.8552 19.736 28.998C24.5834 29.1408 28.6657 25.4034 28.9501 20.5622C29.2345 15.7211 25.618 11.5313 20.7872 11.1055Z" fill="white"/>
<path d="M16.8591 16.3573L15.8246 17.0469C15.5159 17.2538 15.4267 17.668 15.6227 17.9836C15.8187 18.2993 16.2296 18.4029 16.5518 18.2179V22.7931H16.207C15.8261 22.7931 15.5173 23.1019 15.5173 23.4828C15.5173 23.8637 15.8261 24.1724 16.207 24.1724H18.276C18.6568 24.1724 18.9656 23.8637 18.9656 23.4828C18.9656 23.1019 18.6568 22.7931 18.276 22.7931H17.9311V16.931C17.9311 16.6768 17.7911 16.4431 17.5669 16.3231C17.3427 16.2031 17.0707 16.2162 16.8591 16.3573Z" fill="white"/>
<path d="M22.7586 24.1724C23.7108 24.1724 24.4828 23.4005 24.4828 22.4483V17.9655C24.4828 17.0133 23.7108 16.2414 22.7586 16.2414H21.7241C20.7719 16.2414 20 17.0133 20 17.9655V22.4483C20 23.4005 20.7719 24.1724 21.7241 24.1724H22.7586ZM21.3793 22.4483V17.9655C21.3793 17.7751 21.5337 17.6207 21.7241 17.6207H22.7586C22.9491 17.6207 23.1034 17.7751 23.1034 17.9655V22.4483C23.1034 22.6387 22.9491 22.7931 22.7586 22.7931H21.7241C21.5337 22.7931 21.3793 22.6387 21.3793 22.4483Z" fill="white"/>
</g>
<defs>
<clipPath id="clip0">
<rect width="20" height="20" fill="white" transform="translate(10 9)"/>
</clipPath>
</defs>
</svg>
