<?xml version="1.0" encoding="utf-8"?>
<!-- Generator: Adobe Illustrator 21.1.0, SVG Export Plug-In . SVG Version: 6.00 Build 0)  -->
<svg version="1.1" id="Capa_1" xmlns="http://www.w3.org/2000/svg" xmlns:xlink="http://www.w3.org/1999/xlink" x="0px" y="0px"
	 viewBox="0 0 477.9 477.9" style="enable-background:new 0 0 477.9 477.9;" xml:space="preserve">
<style type="text/css">
	.st0{fill:#FFFFFF;}
</style>
<g>
	<g>
		<path class="st0" d="M409.6,153.6h-85.3c-9.4,0-17.1,7.6-17.1,17.1s7.6,17.1,17.1,17.1h85.3c9.4,0,17.1,7.6,17.1,17.1v221.9
			c0,9.4-7.6,17.1-17.1,17.1H68.3c-9.4,0-17.1-7.6-17.1-17.1V204.8c0-9.4,7.6-17.1,17.1-17.1h85.3c9.4,0,17.1-7.6,17.1-17.1
			s-7.6-17.1-17.1-17.1H68.3c-28.3,0-51.2,22.9-51.2,51.2v221.9c0,28.3,22.9,51.2,51.2,51.2h341.3c28.3,0,51.2-22.9,51.2-51.2V204.8
			C460.8,176.5,437.9,153.6,409.6,153.6z"/>
	</g>
</g>
<g>
	<g>
		<path class="st0" d="M336.3,90.3L251,5c-6.7-6.7-17.5-6.7-24.1,0l-85.3,85.3c-6.5,6.8-6.4,17.6,0.4,24.1c6.6,6.4,17.1,6.4,23.7,0
			l56.2-56.2v283.1c0,9.4,7.6,17.1,17.1,17.1s17.1-7.6,17.1-17.1V58.3l56.2,56.2c6.8,6.5,17.6,6.4,24.1-0.4
			C342.7,107.4,342.7,96.9,336.3,90.3z"/>
	</g>
</g>
</svg>
