<?xml version="1.0" encoding="utf-8"?>
<!-- Generator: Adobe Illustrator 21.1.0, SVG Export Plug-In . SVG Version: 6.00 Build 0)  -->
<svg version="1.1" id="Capa_1" xmlns="http://www.w3.org/2000/svg" xmlns:xlink="http://www.w3.org/1999/xlink" x="0px" y="0px"
	 viewBox="0 0 512 512" style="enable-background:new 0 0 512 512;" xml:space="preserve">
<style type="text/css">
	.st0{fill:#FACAD8;}
</style>
<g>
	<path class="st0" d="M341.5,351.7c-0.6,0-1.3,0-1.9,0c-47.9,0-93.1-18.4-127.4-52c-34.8-34.1-54.7-79.6-54.7-128.3
		C157.4,81,221.2,0,221.2,0C87.3,28.1,0,131.1,0,260.1c0,68,27.8,131.6,76.4,179.2c47.9,47,111.1,72.7,178,72.7c0.9,0,1.8,0,2.7,0
		c60.3-0.6,118.6-22.7,164.1-62.2c45-39,82.4-106.3,90.8-189.9C512,259.9,455.3,347.6,341.5,351.7L341.5,351.7z M401.4,427
		c-40.1,34.8-91.5,54.3-144.6,54.8c-0.8,0-1.6,0-2.4,0c-59,0-114.7-22.7-156.9-64.1c-42.8-41.9-66.7-98-67.3-158
		C29.2,169.2,84.7,81.8,164.3,46c-23,34.9-37.5,83.2-37,125.8c0.6,56.7,23.2,109.8,63.7,149.5c40.5,39.7,94.1,61.3,150.8,60.7
		c43.5-0.4,85.3-14.2,120.1-38.7C448.6,375.2,428,404,401.4,427L401.4,427z"/>
	<path class="st0" d="M329.8,215l69.7-34.5l69.9,34l-11.2-76.9l53.9-56l-76.6-13.1L398.8,0l-36.1,68.8l-76.5,13.6l54.3,55.6
		L329.8,215z M382.5,95.8L399,64.2l16.8,31.5l35.2,6l-24.8,25.7l5.2,35.3l-32.1-15.6l-32,15.8l4.9-35.4L347.3,102L382.5,95.8z"/>
</g>
</svg>
