<?xml version="1.0" encoding="utf-8"?>
<!-- Generator: Adobe Illustrator 21.1.0, SVG Export Plug-In . SVG Version: 6.00 Build 0)  -->
<svg version="1.1" id="Capa_1" xmlns="http://www.w3.org/2000/svg" xmlns:xlink="http://www.w3.org/1999/xlink" x="0px" y="0px"
	 viewBox="0 0 512 512" style="enable-background:new 0 0 512 512;" xml:space="preserve">
<style type="text/css">
	.st0{fill:#FACAD8;}
</style>
<path class="st0" d="M181,66.7V355c-15.9-14.3-37-23-60-23c-49.6,0-90,40.4-90,90s40.4,90,90,90s90-40.4,90-90V210.7l240-53.3V295
	c-15.9-14.3-37-23-60-23c-49.6,0-90,40.4-90,90s40.4,90,90,90s90-40.4,90-90V0L181,66.7z M121,482c-33.1,0-60-26.9-60-60
	s26.9-60,60-60s60,26.9,60,60S154.1,482,121,482z M211,180V90.7l240-53.3v89.3L211,180z M391,422c-33.1,0-60-26.9-60-60
	s26.9-60,60-60s60,26.9,60,60S424.1,422,391,422z"/>
</svg>
