<?xml version="1.0" encoding="utf-8"?>
<!-- Generator: Adobe Illustrator 21.1.0, SVG Export Plug-In . SVG Version: 6.00 Build 0)  -->
<svg version="1.1" id="Layer_1" xmlns="http://www.w3.org/2000/svg" xmlns:xlink="http://www.w3.org/1999/xlink" x="0px" y="0px"
	 viewBox="0 0 512 512" style="enable-background:new 0 0 512 512;" xml:space="preserve">
<style type="text/css">
	.st0{fill:#FACAD8;}
</style>
<path class="st0" d="M105,362c-24.8,0-45,20.2-45,45s20.2,45,45,45s45-20.2,45-45S129.8,362,105,362z M105,422c-8.3,0-15-6.7-15-15
	s6.7-15,15-15s15,6.7,15,15S113.3,422,105,422z"/>
<path class="st0" d="M407,0h-15v90H208.9C201.6,39.2,157.8,0,105,0C47.1,0,0,47.1,0,105v302c0,57.9,47.1,105,105,105h302
	c57.9,0,105-47.1,105-105V105C512,47.1,464.9,0,407,0z M30,105c0-41.4,33.6-75,75-75s75,33.6,75,75v228.6
	c-19.1-19.5-45.6-31.6-75-31.6s-55.9,12.1-75,31.6V105z M30,407c0-41.4,33.6-75,75-75s75,33.6,75,75s-33.6,75-75,75S30,448.4,30,407
	z M407,482H178.4c19.5-19.1,31.6-45.6,31.6-75V120h182v212h15c41.4,0,75,33.6,75,75S448.4,482,407,482z M482,333.6
	c-15.8-16.1-36.7-27.2-60-30.5V31.5c34.2,7,60,37.3,60,73.5V333.6z"/>
</svg>
