<?xml version="1.0" encoding="utf-8"?>
<!-- Generator: Adobe Illustrator 21.1.0, SVG Export Plug-In . SVG Version: 6.00 Build 0)  -->
<svg version="1.1" id="Capa_1" xmlns="http://www.w3.org/2000/svg" xmlns:xlink="http://www.w3.org/1999/xlink" x="0px" y="0px"
	 viewBox="0 0 512 512" style="enable-background:new 0 0 512 512;" xml:space="preserve">
<style type="text/css">
	.st0{fill:#FACAD8;}
</style>
<g>
	<path class="st0" d="M241,420.3V482h-90v30h210v-30h-90v-61.7c67.3-6,122.9-52.8,142.4-114.8l-28.6-9C367,353,315.2,391,256,391
		s-111-38-128.8-94.5l-28.6,9C118.1,367.5,173.6,414.3,241,420.3z"/>
	<path class="st0" d="M256,361c57.9,0,105-47.1,105-105V106C361,47.6,313.9,0,256,0S151,47.6,151,106v150
		C151,313.9,198.1,361,256,361z M181,181h45v-30h-45v-30h45V91h-43.5c6.9-34.7,37.2-61,73.5-61s66.6,26.3,73.5,61H286v30h45v30h-45
		v30h45v30H181V181z M181,241h150v15c0,41.4-33.6,75-75,75s-75-33.6-75-75V241z"/>
</g>
</svg>
