<svg width="18" height="19" viewBox="0 0 18 19" fill="none" xmlns="http://www.w3.org/2000/svg">
<path d="M9.27565 18.3103C14.0939 18.3103 17.9998 14.4044 17.9998 9.5862C17.9998 4.76799 14.0939 0.862061 9.27565 0.862061C4.45744 0.862061 0.551514 4.76799 0.551514 9.5862C0.551514 14.4044 4.45744 18.3103 9.27565 18.3103Z" fill="#E3F3F2"/>
<path d="M5.77993 9.5862C5.77993 5.67875 8.34936 2.37142 11.8904 1.26065C11.065 1.00175 10.1864 0.862061 9.27565 0.862061C4.45741 0.862061 0.551514 4.76796 0.551514 9.5862C0.551514 14.4044 4.45741 18.3103 9.27565 18.3103C10.1864 18.3103 11.0653 18.1706 11.8906 17.9116C8.34964 16.8009 5.77993 13.4936 5.77993 9.5862Z" fill="#96C6D3"/>
<path d="M17.9983 9.73204H17.9987C17.9782 10.9947 17.6893 12.1921 17.1867 13.2697L17.186 13.2693C16.5126 12.9966 16.0376 12.3369 16.0376 11.5655C16.0376 10.5506 16.8604 9.72781 17.8753 9.72781C17.9165 9.72781 17.9574 9.72958 17.9983 9.73204Z" fill="#96C6D3"/>
<path d="M9.27574 16.9427C10.0358 16.9427 10.6747 17.4632 10.8544 18.1676C10.3424 18.2614 9.81489 18.3104 9.27574 18.3104C8.73658 18.3104 8.20905 18.2614 7.69702 18.1676C7.87674 17.4632 8.51563 16.9427 9.27574 16.9427Z" fill="#855FF1"/>
<path d="M11.3816 13.0509C11.969 13.0509 12.4455 13.5273 12.4455 14.1147C12.4455 14.7025 11.969 15.1786 11.3816 15.1786C10.7938 15.1786 10.3174 14.7025 10.3174 14.1147C10.3174 13.5273 10.7938 13.0509 11.3816 13.0509Z" fill="#96C6D3"/>
<path d="M13.3112 12.0708C13.7267 12.0708 14.0635 11.734 14.0635 11.3185C14.0635 10.903 13.7267 10.5661 13.3112 10.5661C12.8957 10.5661 12.5588 10.903 12.5588 11.3185C12.5588 11.734 12.8957 12.0708 13.3112 12.0708Z" fill="#96C6D3"/>
<path d="M11.6903 9.31627C12.8083 9.31627 13.7147 8.40988 13.7147 7.29179C13.7147 6.1737 12.8083 5.2673 11.6903 5.2673C10.5722 5.2673 9.66577 6.1737 9.66577 7.29179C9.66577 8.40988 10.5722 9.31627 11.6903 9.31627Z" fill="#96C6D3"/>
<path d="M5.77986 12.4677C6.42347 12.4677 6.94522 11.9459 6.94522 11.3023C6.94522 10.6587 6.42347 10.137 5.77986 10.137C5.13625 10.137 4.6145 10.6587 4.6145 11.3023C4.6145 11.9459 5.13625 12.4677 5.77986 12.4677Z" fill="#9796EB"/>
<path d="M5.77986 12.4677C5.94143 12.4677 6.09535 12.4347 6.23525 12.3752C5.99602 11.6657 5.84554 10.9154 5.79706 10.1374C5.79131 10.1373 5.78564 10.137 5.77986 10.137C5.13604 10.137 4.6145 10.6589 4.6145 11.3023C4.6145 11.9458 5.13604 12.4677 5.77986 12.4677Z" fill="#855FF1"/>
<path d="M3.61689 7.61285C4.0098 7.61285 4.32836 7.93142 4.32836 8.32398C4.32836 8.71689 4.0098 9.03546 3.61689 9.03546C3.22397 9.03546 2.90576 8.71689 2.90576 8.32398C2.90576 7.93142 3.22397 7.61285 3.61689 7.61285Z" fill="#855FF1"/>
<path d="M6.65941 1.2617C6.73835 1.55313 6.78099 1.85971 6.78099 2.17616C6.78099 4.10127 5.22025 5.66201 3.29478 5.66201C2.71686 5.66201 2.17171 5.52105 1.69176 5.27226H1.69141C2.77148 3.37711 4.54154 1.92631 6.65941 1.26135V1.2617Z" fill="#855FF1"/>
</svg>
