<?xml version="1.0" encoding="utf-8"?>
<!-- Generator: Adobe Illustrator 21.1.0, SVG Export Plug-In . SVG Version: 6.00 Build 0)  -->
<svg version="1.1" id="Capa_1" xmlns="http://www.w3.org/2000/svg" xmlns:xlink="http://www.w3.org/1999/xlink" x="0px" y="0px"
	 viewBox="0 0 512 512" style="enable-background:new 0 0 512 512;" xml:space="preserve">
<style type="text/css">
	.st0{fill:#FACAD8;}
</style>
<g>
	<g>
		<path class="st0" d="M501.1,305.7c0-11.4-3.8-22-10.2-30.5C503.7,266,512,251,512,234.1c0-28-22.8-50.8-50.8-50.8h-42.9h-9.9
			h-46.6v-82.2c0-49-39.9-88.9-88.9-88.9c-11.9,0-21.6,9.7-21.6,21.6v59c-8.5,13.6-57.9,68.7-109.7,124.3v-43.7H0v316.7h141.5v-22.9
			l50,18.8c24.7,9.3,50.6,13.9,76.9,13.9h71.6h65.9h22.5c28,0,50.8-22.8,50.8-50.8c0-11.4-3.8-22-10.2-30.5
			c12.8-9.2,21.1-24.3,21.1-41.2c0-11.4-3.8-22-10.2-30.5C492.8,337.7,501.1,322.6,501.1,305.7z M111.5,244.4v211.5v4.2H30V203.3
			h81.5V244.4z M461.2,254.9h-10.9h-1.9h-70.1v30h70.1h1.9c11.5,0,20.8,9.3,20.8,20.8s-9.3,20.8-20.8,20.8h-10.9h-61h-10.9v30h10.9
			h61c11.5,0,20.8,9.3,20.8,20.8c0,11.5-9.3,20.8-20.8,20.8h-10.9h-61h-10.9v30h10.9h61c11.5,0,20.8,9.3,20.8,20.8
			c0,11.5-9.3,20.8-20.8,20.8h-22.5h-65.9h-71.6c-22.7,0-45.1-4-66.4-12l-60.6-22.7V260.8c10.3-10.9,38.2-40.7,65.9-71.1
			c73.8-81,73.8-86.7,73.8-94v-53c28.5,4.1,50.5,28.7,50.5,58.3v97.2h0v15h76.6h9.9h42.9c11.5,0,20.8,9.3,20.8,20.8
			S472.7,254.9,461.2,254.9z"/>
	</g>
</g>
</svg>
