<?xml version="1.0" encoding="utf-8"?>
<!-- Generator: Adobe Illustrator 21.1.0, SVG Export Plug-In . SVG Version: 6.00 Build 0)  -->
<svg version="1.1" id="Layer_1" xmlns="http://www.w3.org/2000/svg" xmlns:xlink="http://www.w3.org/1999/xlink" x="0px" y="0px"
	 viewBox="0 0 512 512" style="enable-background:new 0 0 512 512;" xml:space="preserve">
<style type="text/css">
	.st0{fill:#FACAD8;}
</style>
<path class="st0" d="M491.7,386.6c-14.2-15.7-34.5-24.7-55.7-24.7c-8,0-19.9,3-22.2,3.6l-0.7,0.2l-0.5,0.2V262.7
	c0-50.4-38.1-92-87-97.7c17.1-17.5,27.7-41.5,27.7-67.9C353.2,43.6,309.6,0,256,0s-97.2,43.6-97.2,97.2c0,26.4,10.6,50.3,27.7,67.9
	c-48.9,5.6-87,47.3-87,97.7v103.1l-0.5-0.2l-0.7-0.2c-2.3-0.6-14.2-3.6-22.2-3.6c-21.2,0-41.5,9-55.7,24.7
	c-14.2,15.7-21.1,36.9-19,58c1.9,18.8,11.2,36.1,26.3,48.7C42.2,505.4,60.6,512,79.5,512h353.1c18.9,0,37.3-6.6,51.8-18.7
	c15.1-12.6,24.4-29.9,26.3-48.7C512.8,423.4,505.9,402.3,491.7,386.6z M256,30c37.1,0,67.2,30.1,67.2,67.2
	c0,37.1-30.1,67.2-67.2,67.2c-37.1,0-67.2-30.1-67.2-67.2C188.8,60.1,219,30,256,30z M129.5,262.7c0-37.7,30.6-68.3,68.3-68.3h116.4
	c37.7,0,68.3,30.6,68.3,68.3v114l-45.2,16.5V270.9h-30v133.3L256,422.9l-51.3-18.7V270.9h-30v122.3l-45.2-16.5V262.7z M31.2,441.6
	c-1.3-13,2.8-25.4,11.4-34.9c8.5-9.4,20.7-14.8,33.4-14.8c2.7,0,9.2,1.2,14,2.4l151,55V482H79.5C54.7,482,33.5,464.3,31.2,441.6z
	 M480.8,441.6c-2.3,22.6-23.5,40.4-48.3,40.4H271v-32.7l151-55c4.3-1.1,11.2-2.4,14-2.4c12.7,0,24.9,5.4,33.4,14.8
	C478.1,416.3,482.1,428.7,480.8,441.6z"/>
</svg>
