<?xml version="1.0" encoding="utf-8"?>
<!-- Generator: Adobe Illustrator 21.1.0, SVG Export Plug-In . SVG Version: 6.00 Build 0)  -->
<svg version="1.1" id="Capa_1" xmlns="http://www.w3.org/2000/svg" xmlns:xlink="http://www.w3.org/1999/xlink" x="0px" y="0px"
	 viewBox="0 0 512 512" style="enable-background:new 0 0 512 512;" xml:space="preserve">
<style type="text/css">
	.st0{fill:#FACAD8;}
</style>
<g>
	<g>
		<path class="st0" d="M479.3,198.7v-13.9c0-27.4-22.3-49.7-49.7-49.7c-13.5,0-25.8,5.4-34.7,14.2c-9-8.8-21.2-14.2-34.7-14.2
			s-25.8,5.4-34.7,14.2c-9-8.8-21.2-14.2-34.7-14.2s-25.8,5.4-34.7,14.2c-9-8.8-21.2-14.2-34.7-14.2c-13.5,0-25.8,5.4-34.7,14.2
			c-9-8.8-21.2-14.2-34.7-14.2c-13.5,0-25.8,5.4-34.7,14.2c-9-8.8-21.2-14.2-34.7-14.2c-27.4,0-49.7,22.3-49.7,49.7v13.9
			C13.5,206.8,0,225.8,0,247.9c0,21.7,13.4,41,32.7,49.1v49.6h20v30.3h30v-30.3H241h30h158.3v30.3h30v-30.3h20V297
			c19.3-8.2,32.7-27.4,32.7-49.1C512,225.8,498.5,206.8,479.3,198.7z M241,316.6H62.7v-43.7l-12.8-1.9C38.5,269.3,30,259.4,30,247.9
			c0-11.6,8.6-21.3,19.7-23l0.1,0c0,0,0.1,0,0.1,0c0.5-0.1,1-0.1,1.5-0.2c0.1,0,0.2,0,0.3,0c0.5,0,1-0.1,1.6-0.1
			c12.9,0,23.3,10.5,23.3,23.3v37.7H241L241,316.6L241,316.6z M241,255.6H106.6v-7.7c0-0.9,0-1.7-0.1-2.6c0-0.3,0-0.6-0.1-0.8
			c0-0.6-0.1-1.2-0.1-1.7c0-0.3-0.1-0.7-0.1-1c-0.1-0.5-0.1-1-0.2-1.5c-0.1-0.3-0.1-0.7-0.2-1c-0.1-0.5-0.2-1-0.3-1.5
			c-0.1-0.3-0.1-0.7-0.2-1c-0.1-0.5-0.2-1-0.3-1.4c-0.1-0.3-0.2-0.7-0.3-1c-0.1-0.5-0.3-1-0.4-1.4c-0.1-0.3-0.2-0.6-0.3-1
			c-0.2-0.5-0.3-1-0.5-1.5c-0.1-0.3-0.2-0.6-0.3-0.8c-0.2-0.6-0.5-1.3-0.8-1.9c-0.1-0.1-0.1-0.3-0.2-0.4c-0.3-0.8-0.7-1.5-1-2.2
			c-0.1-0.2-0.2-0.5-0.4-0.7c-0.2-0.5-0.5-1-0.8-1.5c-0.2-0.3-0.3-0.6-0.5-0.9c-0.2-0.4-0.5-0.9-0.7-1.3c-0.2-0.3-0.4-0.6-0.5-0.9
			c-0.3-0.4-0.5-0.8-0.8-1.2c-0.2-0.3-0.4-0.6-0.6-0.9c-0.3-0.4-0.5-0.8-0.8-1.1c-0.2-0.3-0.4-0.6-0.6-0.8c-0.3-0.4-0.6-0.7-0.9-1.1
			c-0.2-0.3-0.4-0.5-0.7-0.8c-0.3-0.4-0.6-0.7-1-1.1c-0.2-0.2-0.4-0.5-0.6-0.7c-0.4-0.4-0.8-0.8-1.2-1.3c-0.2-0.2-0.3-0.3-0.5-0.5
			c-0.6-0.6-1.1-1.1-1.7-1.7c-0.2-0.2-0.4-0.3-0.6-0.5c-0.4-0.4-0.8-0.7-1.2-1.1c-0.3-0.2-0.5-0.4-0.8-0.6c-0.4-0.3-0.8-0.6-1.1-0.9
			c-0.3-0.2-0.6-0.4-0.8-0.6c-0.4-0.3-0.8-0.5-1.1-0.8c-0.3-0.2-0.6-0.4-0.9-0.6c-0.4-0.3-0.8-0.5-1.2-0.7c-0.3-0.2-0.6-0.4-0.9-0.6
			c-0.4-0.2-0.8-0.5-1.2-0.7c-0.3-0.2-0.6-0.3-0.9-0.5c-0.4-0.2-0.9-0.4-1.3-0.7c-0.3-0.1-0.6-0.3-0.9-0.4c-0.5-0.2-1-0.5-1.5-0.7
			c-0.2-0.1-0.5-0.2-0.7-0.3c-0.7-0.3-1.5-0.6-2.3-0.9c-0.2-0.1-0.4-0.1-0.6-0.2c-0.6-0.2-1.2-0.4-1.7-0.6c-0.3-0.1-0.6-0.2-0.9-0.3
			c-0.5-0.1-1-0.3-1.5-0.4c-0.3-0.1-0.7-0.2-1-0.3c-0.5-0.1-1-0.2-1.4-0.3c-0.3-0.1-0.7-0.1-1.1-0.2c-0.3,0-0.5-0.1-0.8-0.2v-10.6
			c0-10.9,8.8-19.7,19.7-19.7s19.7,8.8,19.7,19.7h30c0-10.9,8.8-19.7,19.7-19.7s19.7,8.8,19.7,19.7h30c0-10.9,8.8-19.7,19.7-19.7
			c10.9,0,19.7,8.8,19.7,19.7h30c0-10.9,8.8-19.7,19.7-19.7c10.9,0,19.7,8.8,19.7,19.7h30c0-10.9,8.8-19.7,19.7-19.7
			s19.7,8.8,19.7,19.7h30c0-10.9,8.8-19.7,19.7-19.7s19.7,8.8,19.7,19.7v10.6c-0.3,0-0.5,0.1-0.8,0.2c-0.4,0.1-0.7,0.1-1.1,0.2
			c-0.5,0.1-1,0.2-1.4,0.3c-0.3,0.1-0.7,0.2-1,0.3c-0.5,0.1-1,0.3-1.5,0.4c-0.3,0.1-0.6,0.2-0.9,0.3c-0.6,0.2-1.2,0.4-1.7,0.6
			c-0.2,0.1-0.4,0.1-0.6,0.2c-0.8,0.3-1.5,0.6-2.3,0.9c-0.2,0.1-0.5,0.2-0.7,0.3c-0.5,0.2-1,0.4-1.5,0.7c-0.3,0.1-0.6,0.3-0.9,0.4
			c-0.4,0.2-0.9,0.4-1.3,0.7c-0.3,0.2-0.6,0.3-0.9,0.5c-0.4,0.2-0.8,0.5-1.2,0.7c-0.3,0.2-0.6,0.4-0.9,0.6c-0.4,0.2-0.8,0.5-1.2,0.7
			c-0.3,0.2-0.6,0.4-0.9,0.6c-0.4,0.3-0.8,0.5-1.1,0.8c-0.3,0.2-0.6,0.4-0.8,0.6c-0.4,0.3-0.8,0.6-1.1,0.9c-0.3,0.2-0.5,0.4-0.8,0.6
			c-0.4,0.4-0.8,0.7-1.2,1.1c-0.2,0.2-0.4,0.3-0.6,0.5c-0.6,0.5-1.2,1.1-1.7,1.7c-0.2,0.2-0.3,0.3-0.5,0.5c-0.4,0.4-0.8,0.8-1.2,1.3
			c-0.2,0.2-0.4,0.5-0.6,0.7c-0.3,0.4-0.6,0.7-1,1.1c-0.2,0.3-0.4,0.5-0.6,0.8c-0.3,0.4-0.6,0.7-0.9,1.1c-0.2,0.3-0.4,0.6-0.6,0.8
			c-0.3,0.4-0.5,0.8-0.8,1.1c-0.2,0.3-0.4,0.6-0.6,0.9c-0.3,0.4-0.5,0.8-0.8,1.2c-0.2,0.3-0.4,0.6-0.5,0.9c-0.3,0.4-0.5,0.8-0.7,1.3
			c-0.2,0.3-0.3,0.6-0.5,0.9c-0.3,0.5-0.5,1-0.8,1.5c-0.1,0.2-0.2,0.5-0.4,0.7c-0.4,0.7-0.7,1.5-1,2.2c-0.1,0.1-0.1,0.3-0.2,0.4
			c-0.3,0.6-0.5,1.3-0.8,1.9c-0.1,0.3-0.2,0.6-0.3,0.8c-0.2,0.5-0.4,1-0.5,1.5c-0.1,0.3-0.2,0.6-0.3,1c-0.1,0.5-0.3,1-0.4,1.4
			c-0.1,0.3-0.2,0.7-0.3,1c-0.1,0.5-0.2,1-0.3,1.4c-0.1,0.3-0.1,0.7-0.2,1c-0.1,0.5-0.2,1-0.3,1.5c-0.1,0.3-0.1,0.7-0.2,1
			c-0.1,0.5-0.1,1-0.2,1.5c0,0.3-0.1,0.7-0.1,1c-0.1,0.6-0.1,1.1-0.1,1.7c0,0.3,0,0.6-0.1,0.8c0,0.9-0.1,1.7-0.1,2.6v7.7H271H241z
			 M462.1,270.9l-12.8,1.9v43.7H271v-31h164.4v-37.7c0-12.9,10.5-23.3,23.3-23.3c0.5,0,1,0,1.6,0.1c0.1,0,0.2,0,0.3,0
			c0.5,0,1,0.1,1.5,0.2c0,0,0.1,0,0.1,0l0.1,0c11.2,1.7,19.7,11.4,19.7,23C482,259.4,473.5,269.3,462.1,270.9z"/>
	</g>
</g>
</svg>
