<?xml version="1.0" encoding="utf-8"?>
<!-- Generator: Adobe Illustrator 21.1.0, SVG Export Plug-In . SVG Version: 6.00 Build 0)  -->
<svg version="1.1" id="Capa_1" xmlns="http://www.w3.org/2000/svg" xmlns:xlink="http://www.w3.org/1999/xlink" x="0px" y="0px"
	 viewBox="0 0 512 512" style="enable-background:new 0 0 512 512;" xml:space="preserve">
<style type="text/css">
	.st0{fill:#FACAD8;}
</style>
<g>
	<path class="st0" d="M451.8,135.5c33.2,0,60.2-27,60.2-60.2s-27-60.2-60.2-60.2s-60.2,27-60.2,60.2S418.6,135.5,451.8,135.5z
		 M451.8,45.2c16.6,0,30.1,13.5,30.1,30.1s-13.5,30.1-30.1,30.1c-16.6,0-30.1-13.5-30.1-30.1S435.2,45.2,451.8,45.2z"/>
	<path class="st0" d="M426.7,466.8c-18,0-26.4-4-36.3-8.6c-11.4-5.4-24.4-11.5-49.1-11.5c-24.7,0-37.7,6.1-49.1,11.5
		c-9.8,4.6-18.3,8.6-36.3,8.6c-18,0-26.4-4-36.3-8.6c-11.4-5.4-24.4-11.5-49.1-11.5s-37.7,6.1-49.1,11.5c-9.8,4.6-18.3,8.6-36.3,8.6
		s-26.4-4-36.3-8.6c-11.4-5.4-24.4-11.5-49.1-11.5v30.1c18,0,26.4,4,36.3,8.6c11.4,5.4,24.4,11.5,49.1,11.5s37.7-6.1,49.1-11.5
		c9.8-4.6,18.3-8.6,36.3-8.6s26.4,4,36.3,8.6c11.4,5.4,24.4,11.5,49.1,11.5c24.7,0,37.7-6.1,49.1-11.5c9.8-4.6,18.3-8.6,36.3-8.6
		c18,0,26.4,4,36.3,8.6c11.4,5.4,24.4,11.5,49.1,11.5c24.7,0,37.7-6.1,49.1-11.5c9.8-4.6,18.3-8.6,36.3-8.6v-30.1
		c-24.7,0-37.7,6.1-49.1,11.5C453.1,462.8,444.6,466.8,426.7,466.8z"/>
	<path class="st0" d="M426.8,331.1c-49.2-25.8-109.9-40-170.8-40c-25.5,0-51,2.5-75.6,7.3c-0.9-24.7-2-111.2,22.5-170.2
		c6.6,16.5,13.3,41.9,8.2,69.8l29.6,5.4c7.1-39.1-3.7-73.3-12.7-93.2c15.6,0.8,40.9,4.5,65.8,18.4l14.6-26.3
		C277.1,84.8,245.8,80.7,227,80c10-12.5,29.6-31.3,59.6-34.9L283,15.2c-38.7,4.7-64.2,27.6-78.1,44.3
		c-11.2-16.7-33.7-37.5-77.2-44.2L123.2,45c33.9,5.2,50,20.9,57.3,32c-1.9,0.4-3.8,0.8-5.7,1.2c-31.7,7.5-58.3,26.1-76.8,54
		l25.1,16.7c16.7-25,38.2-36.1,56.1-40.8c-34,72.6-29.4,181.9-28.5,197.4c-23.2,6.5-45.2,15.1-65.3,25.6
		c-27.8,14.5-57.1,35.8-66.8,56.7C13.1,387,7,386.5,0,386.5v30.1c18,0,26.4,4,36.3,8.6c11.4,5.4,24.4,11.5,49.1,11.5
		s37.7-6.1,49.1-11.5c9.8-4.6,18.3-8.6,36.3-8.6s26.4,4,36.3,8.6c11.4,5.4,24.4,11.5,49.1,11.5c24.7,0,37.7-6.1,49.1-11.5
		c9.8-4.6,18.3-8.6,36.3-8.6c18,0,26.4,4,36.3,8.6c11.4,5.4,24.4,11.5,49.1,11.5c24.7,0,37.7-6.1,49.1-11.5
		c9.8-4.6,18.3-8.6,36.3-8.6v-30.1c-7,0-13.1,0.5-18.4,1.3C483.8,367,454.5,345.7,426.8,331.1z M426.7,406.6c-18,0-26.4-4-36.3-8.6
		c-11.4-5.4-24.4-11.5-49.1-11.5c-24.7,0-37.7,6.1-49.1,11.5c-9.8,4.6-18.3,8.6-36.3,8.6c-18,0-26.4-4-36.3-8.6
		c-11.4-5.4-24.4-11.5-49.1-11.5s-37.7,6.1-49.1,11.5c-9.8,4.6-18.3,8.6-36.3,8.6s-26.4-4-36.3-8.6c-0.5-0.2-1-0.5-1.5-0.7
		c5.8-8.4,22.2-24.6,55-41.2c44.4-22.4,98.8-34.8,153.4-34.8s109,12.4,153.4,34.8c32.8,16.6,49.2,32.8,55,41.2
		c-0.5,0.2-1,0.5-1.5,0.7C453.1,402.6,444.6,406.6,426.7,406.6L426.7,406.6z"/>
</g>
</svg>
