<?xml version="1.0" encoding="utf-8"?>
<!-- Generator: Adobe Illustrator 21.1.0, SVG Export Plug-In . SVG Version: 6.00 Build 0)  -->
<svg version="1.1" id="Layer_1" xmlns="http://www.w3.org/2000/svg" xmlns:xlink="http://www.w3.org/1999/xlink" x="0px" y="0px"
	 viewBox="0 0 512 512" style="enable-background:new 0 0 512 512;" xml:space="preserve">
<style type="text/css">
	.st0{fill:#FACAD8;}
</style>
<path class="st0" d="M333.1,206.9v-30h-33.2l42.7-76.3h-86.6v30h35.4l-42.7,76.3H333.1z"/>
<path class="st0" d="M428.8,146.8v-30h-25.3l34-60.8h-73.4v30h22.3l-34,60.8H428.8z"/>
<path class="st0" d="M512,310.4h-40.2c-15.5-40.3-54.6-68.9-100.2-68.9H140.4c-45.7,0-84.7,28.7-100.2,68.9H0v30h33.4
	c-0.2,2.8-0.3,5.6-0.3,8.4c0,59.2,48.1,107.3,107.4,107.3c36.6,0,70.3-18.4,90.2-49.1l25.4-39.3l25.4,39.3
	c19.9,30.8,53.6,49.1,90.2,49.1c59.2,0,107.3-48.1,107.3-107.3c0-2.8-0.1-5.6-0.3-8.4H512V310.4z M371.5,426.1
	c-26.4,0-50.7-13.2-65-35.4l-39.7-61.5h-21.8l-39.7,61.5c-14.3,22.2-38.6,35.4-65,35.4c-42.6,0-77.3-34.7-77.3-77.3
	c0-42.6,34.7-77.3,77.3-77.3h231.2c42.6,0,77.3,34.7,77.3,77.3S414.2,426.1,371.5,426.1z"/>
</svg>
